<svg xmlns="http://www.w3.org/2000/svg" viewBox="0 0 1771.95 361.37"><defs><style>.cls-1{fill:#5cb615;}.cls-2{fill:#011e41;}.cls-3{fill:#06f;}.cls-4{fill:#00ae42;}</style></defs><g id="Layer_2" data-name="Layer 2"><g id="BASE"><rect class="cls-1" x="1688.59" y="140.8" width="36.7" height="36.7"/><polygon class="cls-1" points="1754.21 163.43 1742.06 163.42 1756.76 220.5 1709.7 220.47 1704.82 220.47 1657.76 220.44 1672.52 163.39 1660.37 163.38 1642.56 232.2 1704.82 232.24 1709.69 232.24 1771.94 232.27 1754.21 163.43"/><polygon class="cls-1" points="1672.5 150.2 1675.93 150.2 1678.98 138.43 1678.98 138.43 1684.24 118.1 1730.39 118.13 1735.63 138.46 1735.63 138.46 1738.66 150.24 1747.82 150.24 1747.82 150.24 1750.82 150.24 1739.52 106.36 1675.13 106.33 1663.78 150.19 1672.5 150.2 1672.5 150.2"/><path class="cls-2" d="M1043.92,200.42V107.28h8.38v85.29h47.64v7.85Z"/><path class="cls-2" d="M1107.5,181.52c0-12.5,8.25-20.75,26-20.75h19.29v-3.06c0-11.18-6.65-17.7-17.3-17.7-11,0-17.3,6-18,13.17h-8c.67-10.78,9.58-20.62,26-20.62,15.3,0,25.15,9.18,25.15,25.15v42.71h-6.79l-1.06-9.85h-.8c-3.19,6-11.18,11.18-21.82,11.18C1116.69,201.75,1107.5,193.5,1107.5,181.52Zm45.25-10.24v-3.06h-19.29c-12.38,0-18,5.45-18,13.3s5.32,12.78,14.64,12.78C1144.76,194.3,1152.75,184.58,1152.75,171.28Z"/><path class="cls-2" d="M1272.88,200.42l-9.45-25.15H1216.6l-9.45,25.15h-8.79l35.27-93.14h12.91l35.26,93.14Zm-53.36-33h41l-19.16-51.36h-2.53Z"/><path class="cls-2" d="M1305.73,200.42c-7.18,0-11.44-4.26-11.44-10.91V141.34h-10.64v-7.45h10.64V115.26h7.85v18.63h16.23v7.45h-16.23V188c0,3.2,1.73,4.93,4.92,4.93h11.31v7.45Z"/><path class="cls-2" d="M1329.14,181.52c0-12.5,8.25-20.75,25.95-20.75h19.3v-3.06c0-11.18-6.66-17.7-17.31-17.7-11,0-17.3,6-18,13.17h-8c.67-10.78,9.58-20.62,25.94-20.62,15.31,0,25.15,9.18,25.15,25.15v42.71h-6.78l-1.06-9.85h-.81c-3.19,6-11.17,11.18-21.82,11.18C1338.33,201.75,1329.14,193.5,1329.14,181.52Zm45.25-10.24v-3.06h-19.3c-12.37,0-18,5.45-18,13.3s5.32,12.78,14.63,12.78C1366.4,194.3,1374.39,184.58,1374.39,171.28Z"/><path class="cls-2" d="M1402.84,200.42V107.28h7.85v93.14Z"/><path class="cls-2" d="M1428.64,181.52c0-12.5,8.25-20.75,26-20.75h19.29v-3.06c0-11.18-6.65-17.7-17.3-17.7-11,0-17.3,6-18,13.17h-8c.67-10.78,9.58-20.62,25.95-20.62,15.3,0,25.15,9.18,25.15,25.15v42.71H1475l-1.06-9.85h-.8c-3.19,6-11.18,11.18-21.82,11.18C1437.83,201.75,1428.64,193.5,1428.64,181.52Zm45.25-10.24v-3.06H1454.6c-12.38,0-18,5.45-18,13.3s5.32,12.78,14.64,12.78C1465.9,194.3,1473.89,184.58,1473.89,171.28Z"/><path class="cls-2" d="M1543.86,133.89h8.39l-30.07,84.36c-2.13,6.12-5.33,8.78-12.11,8.78h-11.31v-7.45h10.91c3.33,0,4.79-2,5.72-4.66l3.46-10.11L1492,133.89h8.39L1521.65,191h2.65Z"/><path class="cls-2" d="M1559.81,181.52c0-12.5,8.25-20.75,26-20.75h19.3v-3.06c0-11.18-6.66-17.7-17.31-17.7-11,0-17.29,6-18,13.17h-8c.67-10.78,9.58-20.62,25.94-20.62,15.31,0,25.15,9.18,25.15,25.15v42.71h-6.78l-1.06-9.85h-.8c-3.2,6-11.18,11.18-21.83,11.18C1569,201.75,1559.81,193.5,1559.81,181.52Zm45.25-10.24v-3.06h-19.3c-12.37,0-18,5.45-18,13.3s5.32,12.78,14.63,12.78C1597.07,194.3,1605.06,184.58,1605.06,171.28Z"/><circle class="cls-3" cx="19.96" cy="279.04" r="14.44"/><circle class="cls-3" cx="53.9" cy="279.04" r="14.44"/><circle class="cls-3" cx="87.84" cy="279.04" r="14.44"/><circle class="cls-3" cx="53.9" cy="312.99" r="14.44"/><circle class="cls-3" cx="53.9" cy="346.93" r="14.44"/><path class="cls-3" d="M133.07,301.73H119.63v-8h35.25v8H141.4v36.85h-8.33Z"/><path class="cls-3" d="M183,329c-.71,2.56-4.75,10.25-15.06,10.25-9.62,0-16.67-7.05-16.67-17s7-17,16.67-17a15.93,15.93,0,0,1,16,16.34,19.63,19.63,0,0,1-.19,2.3l-.13.9H159.28a8.62,8.62,0,0,0,8.66,7.69,7.48,7.48,0,0,0,6.73-3.52ZM176,319.36c-.71-4.17-3.47-7.37-8-7.37-4.87,0-7.7,3.2-8.66,7.37Z"/><path class="cls-3" d="M188.76,293.72h8v44.86h-8Z"/><path class="cls-3" d="M233.3,329c-.7,2.56-4.74,10.25-15.06,10.25-9.61,0-16.66-7.05-16.66-17s7-17,16.66-17a15.93,15.93,0,0,1,16,16.34,17.69,17.69,0,0,1-.19,2.3l-.13.9H209.59a8.61,8.61,0,0,0,8.65,7.69A7.46,7.46,0,0,0,225,329Zm-7.05-9.61c-.71-4.17-3.46-7.37-8-7.37-4.87,0-7.69,3.2-8.65,7.37Z"/><path class="cls-3" d="M241.63,313.59h-5.45V305.9h5.45v-4.81c0-4.87,3.14-8,8-8h7.05v7.06h-4.81a2.18,2.18,0,0,0-2.24,2.13v3.64h7.05v7.69h-7.05v25h-8Z"/><path class="cls-3" d="M291.22,322.26c0,9.93-7.05,17-16.66,17s-16.67-7.07-16.67-17,7.05-17,16.67-17S291.22,312.3,291.22,322.26Zm-8,0c0-5.77-3.85-9.61-8.65-9.61s-8.66,3.84-8.66,9.61,3.85,9.61,8.66,9.61,8.65-3.86,8.65-9.61Z"/><path class="cls-3" d="M296,305.9h7.37l.65,3.22h.31a10.56,10.56,0,0,1,2.19-1.92,12.1,12.1,0,0,1,6.79-1.92c7.37,0,12.82,5.44,12.82,13.77V338.6h-8V319.67a7.05,7.05,0,0,0-14.1,0v18.91h-8Z"/><path class="cls-3" d="M377.14,326.4c-1,5.13-5.06,12.82-15.38,12.82-9.62,0-16.66-7.05-16.66-17s7-17,16.66-17c10.32,0,14.36,7.68,15.38,12.5h-8a7.46,7.46,0,0,0-7.37-5.13c-4.81,0-8.67,3.84-8.67,9.63s3.85,9.61,8.66,9.61a7.27,7.27,0,0,0,7.37-5.45Z"/><path class="cls-3" d="M401.37,335.38h-.32a9.83,9.83,0,0,1-2.25,1.92,12.78,12.78,0,0,1-7.05,1.92c-7.43,0-11.86-4.55-11.86-9.93,0-6.41,4.49-10.89,13.46-10.89h7.37v-.64c0-3.59-2.17-6.09-5.77-6.09s-5.44,2.32-5.76,4.17h-8c.7-5.38,5.06-10.57,13.77-10.57,8.34,0,13.79,5.51,13.79,12.5V338.6H402Zm-.65-10.89H394c-4.17,0-6.09,1.62-6.09,4.17s1.86,4.17,5.13,4.17c4.87,0,7.68-2.82,7.68-7.37Z"/><path class="cls-3" d="M332.28,305.9h8v32.68h-8Z"/><circle class="cls-3" cx="336.29" cy="296.46" r="4.74"/><polygon class="cls-3" points="277.44 292.11 285.77 292.11 278.08 301.41 271.35 301.41 277.44 292.11"/><path class="cls-4" d="M473.08,303.46h9.16c-.63,2.48-.78,7.29-.75,12.06l.06,11.19c0,10.94-.68,13.32-1.14,14.87-1.7,5.79-6.08,6.13-6.62,6.13a9.94,9.94,0,0,1-2.22-.48c3.71-2.63,6.16-5.35,6.06-20L477.57,317c0-2.33,0-6.61.07-9.19l-1.66-.11a16.06,16.06,0,0,0-4,.59Z"/><path class="cls-4" d="M492.18,303.47c-.6,2.37-.85,3.69-.86,8.76V325.5a17,17,0,0,0,.52,5c1.31,4.42,4.38,5.75,6.09,5.75,2.87,0,5.34-3,6.08-6.38a16.51,16.51,0,0,0,.22-3.65v-14.4a28.72,28.72,0,0,0-.95-8.36H509c-.43,1.55-.72,2.67-.72,7.44v19.45a54.91,54.91,0,0,0,.71,9.59h-4.71a25.94,25.94,0,0,0,.18-3.6c-1.56,1.32-4.64,3.94-8.42,3.93-5.49,0-8.63-5.74-8.62-14.06v-14.4c0-5.54-.39-6.8-.85-8.36Z"/><path class="cls-4" d="M517.89,303.48a22.9,22.9,0,0,0,2.83,6.18l12,20.91V314c0-6.71-.3-8.41-.73-10.5h5.09a38.11,38.11,0,0,0-.68,7.79v19.59c0,5.65.5,7.59.88,9.1h-4.92a19.56,19.56,0,0,0-2.25-5.26L518.8,314.86v14.4a46.16,46.16,0,0,0,1.05,10.7h-5.62a53.17,53.17,0,0,0,.88-9.64V308.4a21.8,21.8,0,0,0-3.56-4.92Z"/><path class="cls-4" d="M561.11,303.55l-1.84,5.6c-2.9-1.61-3.85-1.95-6.94-1.95v24.06a44.33,44.33,0,0,0,.74,8.72h-5.41a53.12,53.12,0,0,0,.75-9.29V307.2c-1.77-.06-3.32-.06-8.46,2.47l1.42-6.13Z"/><path class="cls-4" d="M585,330a54.42,54.42,0,0,0,4.14,9.87l-6.3.1a19.38,19.38,0,0,0-1.1-6.43l-1.55-4.9h-9.3l-1.35,3.94A21.28,21.28,0,0,0,568.2,340h-6.48c.89-1.42,1.66-2.73,3.86-8.72l10.24-27.91H576Zm-12.62-5.65h6.44l-3.08-9.77Z"/><path class="cls-4" d="M604,313.5a46,46,0,0,0-1-9.82,19.64,19.64,0,0,1,2.75-.2c4.89,0,10.75.63,14.79,7.74a22.2,22.2,0,0,1,2.64,10.9c0,9.48-5.29,17.9-13.81,17.89h-6.39c.56-2.29,1.05-4.38,1.06-11.09Zm4,14.55c0,4.13,0,5.49.21,8.4,7.89-1.05,10.3-9.08,10.3-14.83,0-5.1-1.87-13.12-10.28-14.73-.22,2.23-.22,4.86-.22,6.66Z"/><path class="cls-4" d="M639.83,303.55l-2,5.64c-3-1.85-4.53-2.35-7.32-2.19v12.74h8.31l-2.27,5.11a18.11,18.11,0,0,0-6-1.62v13.34c3.4,0,5.26,0,10.89-2.62L639.43,340h-13.9a40.83,40.83,0,0,0,1-9.4V312.79a44,44,0,0,0-1-9.25Z"/><path class="cls-4" d="M669.65,303.57l-2,5.64c-3-1.85-4.52-2.35-7.33-2.19v12.73h8.31l-2.26,5.1a18.34,18.34,0,0,0-6.05-1.61v13.34c3.39,0,5.28,0,10.89-2.63l-1.94,6.09H655.33a39,39,0,0,0,1-9.4V312.8a43.42,43.42,0,0,0-1-9.24Z"/><path class="cls-4" d="M678.49,303.57a27,27,0,0,0,2,6.42l2.84,6.52,2.59-5.83a26.75,26.75,0,0,0,2.19-7.1h6c-1.7,3.26-4,7.78-5.24,10.55l-3.26,7.45,3.35,7.82a59,59,0,0,0,5.8,10.66h-6.93a17.8,17.8,0,0,0-1.66-6.77l-2.83-6.52-3.76,8.46a11.92,11.92,0,0,0-1.26,4.82l-6.13-.11a66.79,66.79,0,0,0,5.06-9.57l3.9-8.8L677.35,313a81.54,81.54,0,0,0-4.92-9.43Z"/><path class="cls-4" d="M716.89,303.64l-1.84,5.59c-2.9-1.6-3.85-1.94-6.93-2v24.07a46,46,0,0,0,.73,8.72h-5.4a52.93,52.93,0,0,0,.75-9.29V307.28c-1.77,0-3.33,0-8.46,2.48l1.42-6.13Z"/><path class="cls-4" d="M720.25,311.23a30.92,30.92,0,0,0-.7-7.54l5.16-.09c6.83-.15,10,5.5,10,10.41a11.69,11.69,0,0,1-5,9.72,121.79,121.79,0,0,0,8.75,16.35h-3.64c-3.56-4.23-5.19-6.87-10.67-16.88v9a33.7,33.7,0,0,0,.74,7.89h-5.38a56.87,56.87,0,0,0,.71-9.44Zm3.92,11.43c2.51-1,6.55-2.53,6.55-8.11,0-2.73-1.24-7.11-6.54-7.84Z"/><path class="cls-4" d="M755.12,303.61l-2,5.64c-3-1.85-4.53-2.34-7.32-2.19V319.8h8.31l-2.26,5.1a18,18,0,0,0-6.05-1.61v13.34c3.38,0,5.26,0,10.89-2.63l-1.95,6.08H740.81a39.07,39.07,0,0,0,1-9.4V312.85a42.78,42.78,0,0,0-1-9.24Z"/><path class="cls-4" d="M763,303.62a19.64,19.64,0,0,0,2.29,5.05l7.25,12.41,7.94-13.47a21.6,21.6,0,0,0,1.9-3.83h5.2c-1.1,1.8-2.12,3.45-2.13,8.75v17.94a30.13,30.13,0,0,0,1.21,9.64h-6.37a28.71,28.71,0,0,0,1.16-9.06V313.74L772.55,329l-9-15.28V332a28.92,28.92,0,0,0,1.12,8.13h-6.29c.53-1.72,1.2-4.1,1.21-9.74V307.6l-2.62-4Z"/><path class="cls-4" d="M811.88,330.15A56.12,56.12,0,0,0,816,340l-6.29.1a19.52,19.52,0,0,0-1.09-6.42l-1.55-4.91h-9.31l-1.34,3.93a21.6,21.6,0,0,0-1.35,7.4H788.6c.88-1.41,1.65-2.73,3.85-8.71l10.24-27.91h.21Zm-12.62-5.65h6.43l-3.07-9.78Z"/><path class="cls-4" d="M819.09,313.62A44,44,0,0,0,818,303.8a20.07,20.07,0,0,1,2.77-.2c4.87,0,10.75.63,14.77,7.73a22.38,22.38,0,0,1,2.65,10.91c0,9.48-5.28,17.9-13.81,17.89H818c.57-2.29,1.06-4.38,1.06-11.09Zm4,14.55c0,4.13,0,5.49.21,8.4,7.88-1.05,10.3-9.09,10.3-14.83,0-5.1-1.88-13.13-10.28-14.74-.22,2.24-.22,4.87-.22,6.67Z"/><path class="cls-4" d="M846.15,303.66c-.6,2.38-.85,3.7-.85,8.76V325.7a17.18,17.18,0,0,0,.53,5c1.31,4.42,4.38,5.75,6.08,5.75,2.86,0,5.34-3,6.09-6.37a16.51,16.51,0,0,0,.22-3.65V312a28.43,28.43,0,0,0-1-8.36h5.66c-.42,1.56-.71,2.67-.71,7.44v19.46a56.62,56.62,0,0,0,.7,9.58h-4.7a27.8,27.8,0,0,0,.18-3.6c-1.56,1.31-4.64,3.93-8.43,3.93-5.48,0-8.62-5.75-8.61-14.06V312c0-5.54-.38-6.8-.84-8.36Z"/><path class="cls-4" d="M868.34,311.31a31.82,31.82,0,0,0-.71-7.54l5.16-.09c6.83-.15,10,5.5,10,10.41a11.69,11.69,0,0,1-5,9.72,123.06,123.06,0,0,0,8.75,16.36h-3.64c-3.56-4.23-5.19-6.86-10.67-16.87v9a34.21,34.21,0,0,0,.74,7.89h-5.37a57.05,57.05,0,0,0,.72-9.45Zm3.91,11.43c2.52-1,6.55-2.53,6.55-8.11,0-2.73-1.24-7.11-6.54-7.84Z"/><path class="cls-4" d="M910.62,330.21a55.43,55.43,0,0,0,4.13,9.87l-6.29.1a19.64,19.64,0,0,0-1.1-6.43l-1.56-4.9h-9.29l-1.34,3.94a21.22,21.22,0,0,0-1.36,7.39h-6.47c.88-1.42,1.67-2.73,3.86-8.72l10.23-27.91h.21ZM898,324.56h6.44l-3.06-9.78Z"/><path class="cls-2" d="M2.59,76.94,16.22,0H69L66.12,15.94H31L28.31,30.77h33L58.64,46.16h-33L23,61H58.21L55.35,76.94Z"/><path class="cls-2" d="M59.3,76.94,92.17,37.37,74.58,0h20l9.67,23.08h2.2L124.26,0H146L115.25,37.37,134,76.94H114L103,52.21h-2.19L81.06,76.94Z"/><path class="cls-2" d="M156,76.94,166.57,17H145.14l3.08-17h60.45l-3.08,17H184.15L173.6,76.94Z"/><path class="cls-2" d="M249.33,51.33l19,25.61H247.9L230.2,52.21H227l-4.4,24.73H205L218.67,0h35.94c11.76,0,21.32,8.57,21.32,22.64C275.93,40.78,262.85,50.89,249.33,51.33ZM229.88,36.27H248c5.27,0,10.33-4.62,10.33-11.1,0-5.61-3-8.68-8.46-8.68h-16.6Z"/><path class="cls-2" d="M279.77,76.94,293.4,0h52.76L343.3,15.94H308.13l-2.64,14.83h33l-2.65,15.39h-33L300.21,61h35.18l-2.86,15.94Z"/><path class="cls-2" d="M345.83,76.94,359.35,0h26.16l6.92,47.81h2.2L418.48,0h27.69L432.66,76.94H415.07l8.24-47.27h-2.19L397.49,76.94H381l-7.15-47.27h-2.2l-8.24,47.27Z"/><path class="cls-2" d="M499.69,76.94l-2.3-15.39H467.6L460,76.94H440.34L480.13,0h25.28l13,76.94Zm-24.4-30.78h19.9l-4.07-27.47h-2.2Z"/><path class="cls-2" d="M525,76.94,538.49,0h27.8c16.93,0,31.77,14.07,31.77,33.63,0,24.4-19.56,43.31-42,43.31Zm20.66-17h12.09c12.64,0,22.75-9.78,22.75-24.62,0-10.55-7.58-18.25-16.7-18.25H553.11Z"/><path class="cls-2" d="M608.17,42.42,615.75,0h17.59l-7.92,44.07c-1.76,9.68,4,16.93,13.19,16.93,7.7,0,14.51-5.61,16.16-14.84L663,0H680.6l-8.47,47.81c-3.4,19-17.25,30.23-34.62,30.23C615.75,78,604.43,63.31,608.17,42.42Z"/><path class="cls-2" d="M725.88,51.33l19,25.61H724.45l-17.7-24.73h-3.18l-4.4,24.73H681.58L695.21,0h35.95c11.75,0,21.31,8.57,21.31,22.64C752.47,40.78,739.4,50.89,725.88,51.33ZM706.43,36.27h18.13c5.27,0,10.33-4.62,10.33-11.1,0-5.61-3-8.68-8.46-8.68h-16.6Z"/><path class="cls-2" d="M808,76.94l-2.31-15.39H775.88L768.3,76.94H748.63L788.41,0H813.7l13,76.94Zm-24.4-30.78h19.89l-4.06-27.47h-2.2Z"/><path class="cls-2" d="M0,166.56c0-26.6,20.55-45.17,42.09-45.17,19.68,0,33.53,14.4,33.53,34,0,26.6-20.56,45.17-42.1,45.17C13.85,200.52,0,186.13,0,166.56Zm58-9.45c0-11.43-7.47-18.69-17.7-18.69-11.32,0-22.74,10.22-22.74,26.38,0,11.43,7.47,18.69,17.69,18.69C46.6,183.49,58,173.26,58,157.11Z"/><path class="cls-2" d="M80.45,199.42l13.63-76.93h34.84c12.64,0,22,8.79,22,22.2,0,19.56-13.19,31.65-28.14,31.65H102.1L98,199.42Zm24.73-40.11h17.69c5.5,0,10.44-4.4,10.44-11.54,0-5-3.29-8.25-7.69-8.25H108.69Z"/><path class="cls-2" d="M154,199.42l13.63-76.93h52.76l-2.86,15.93H182.33l-2.63,14.84h33L210,168.65h-33l-2.63,14.84h35.17l-2.86,15.93Z"/><path class="cls-2" d="M220,199.42l13.52-76.93H255l15.83,47.26H273l8.35-47.26H299l-13.52,76.93H264l-15.83-47.26H246l-8.36,47.26Z"/><path class="cls-2" d="M330.48,199.42l13.63-76.93h52.21l-2.86,15.93H358.84l-2.75,15.39H388l-2.64,15.39H353.45l-5.39,30.22Z"/><path class="cls-2" d="M400.38,164.91,408,122.49h17.59l-7.92,44.07c-1.75,9.67,4,16.93,13.19,16.93,7.7,0,14.51-5.61,16.16-14.84l8.24-46.16h17.59l-8.46,47.81c-3.41,19-17.26,30.22-34.63,30.22C408,200.52,396.64,185.8,400.38,164.91Z"/><path class="cls-2" d="M489.73,199.42l10.55-59.9H478.85l3.08-17h60.45l-3.08,17H517.87l-10.55,59.9Z"/><path class="cls-2" d="M543.92,164.91l7.58-42.42h17.58l-7.91,44.07c-1.76,9.67,4,16.93,13.19,16.93,7.7,0,14.51-5.61,16.16-14.84l8.24-46.16h17.59l-8.47,47.81c-3.4,19-17.25,30.22-34.62,30.22C551.5,200.52,540.18,185.8,543.92,164.91Z"/><path class="cls-2" d="M661.62,173.82l19,25.6H660.19L642.5,174.69h-3.19l-4.4,24.73H617.33L631,122.49H666.9c11.76,0,21.32,8.57,21.32,22.64C688.22,163.26,675.14,173.38,661.62,173.82Zm-19.45-15.06H660.3c5.28,0,10.33-4.62,10.33-11.1,0-5.61-3-8.69-8.46-8.69H645.58Z"/><path class="cls-2" d="M692.06,199.42l13.63-76.93h52.76l-2.86,15.93H720.42l-2.63,14.84h33l-2.64,15.39h-33l-2.63,14.84h35.17l-2.86,15.93Z"/></g></g></svg>