<?xml version="1.0" encoding="UTF-8" standalone="no"?>
<!DOCTYPE svg PUBLIC "-//W3C//DTD SVG 1.1//EN" "http://www.w3.org/Graphics/SVG/1.1/DTD/svg11.dtd">
<svg width="100%" height="100%" viewBox="0 0 2907 973" version="1.1" xmlns="http://www.w3.org/2000/svg" xmlns:xlink="http://www.w3.org/1999/xlink" xml:space="preserve" xmlns:serif="http://www.serif.com/" style="fill-rule:evenodd;clip-rule:evenodd;stroke-linejoin:round;stroke-miterlimit:2;">
    <g transform="matrix(0.242562,0,0,0.242562,1429.85,476.549)">
        <g transform="matrix(1,0,0,1,-7308.33,-5168.75)">
            <g id="Capa_2" transform="matrix(4.35893,0,0,4.35893,4363.91,4461.45)">
                <g>
                    <g id="Capa_21" serif:id="Capa_2">
                        <g id="Capa_1-2">
                            <path d="M259.51,242.8L259.51,64.23C258.9,58.64 255.85,36.47 236.67,19.16C225.545,9.223 211.574,3.029 196.74,1.46L0,1.46L0,324.46L177.81,324.46C180.91,324.59 223.44,325.73 246.81,291.96C260.82,271.71 260.09,250.13 259.51,242.8ZM189.15,262.88C186.48,268.19 180.35,268.76 173.21,269.01L64.69,269.01L64.69,57.48L172.29,57.48C176.814,56.81 181.426,57.91 185.16,60.55C188.257,62.822 190.521,66.053 191.6,69.74L191.6,250.61C191.906,254.846 191.059,259.086 189.15,262.88Z" style="fill:white;fill-rule:nonzero;"/>
                            <path d="M902.52,0.92L902.52,324.19L1066.69,324.19L1039.56,260.27L966.44,260.27L966.44,127.84L1176.59,324.19L1176.59,0.92L999.09,0.92L1039.56,63.92L1112.67,63.92L1112.67,187.16L902.52,0.92Z" style="fill:white;fill-rule:nonzero;"/>
                            <path d="M1429.3,17.77C1414.44,7.506 1396.97,1.663 1378.92,0.92L1240.51,0.92L1240.51,324.19L1404.68,324.19L1377.09,264.87L1304,264.87L1304,205.55L1382.63,205.55C1418.32,206.517 1450.91,184.669 1463.57,151.29L1463.57,61.16C1456.66,43.643 1444.74,28.546 1429.3,17.77ZM1403.3,129.22C1401.33,133.935 1398.15,138.055 1394.1,141.17C1388.68,145.243 1382.03,147.359 1375.25,147.17L1304.89,147.17L1304.89,55.64C1308.17,55.5 1351.06,53.64 1374.79,55.64C1380.61,55.898 1386.26,57.618 1391.24,60.64C1396.45,64.065 1400.62,68.853 1403.3,74.48L1403.3,129.22Z" style="fill:white;fill-rule:nonzero;"/>
                            <path d="M1739.9,19.31C1716.41,0.24 1690.53,0.65 1684.26,0.92L1578,0.92C1571.52,1.05 1541.22,2.35 1517.76,26.67C1506.36,38.625 1498.68,53.652 1495.69,69.9L1495.69,259.81C1498.76,276.563 1507.14,291.888 1519.6,303.5C1540.26,322.57 1564.38,324.01 1570.6,324.19L1687.86,324.19C1693.45,324.31 1723.68,324.41 1747.18,300.74C1758.98,288.698 1766.7,273.252 1769.25,256.59L1769.25,69.9C1768.3,63.7 1763.35,38.35 1739.9,19.31ZM1705.42,251.08C1704.56,255.997 1702.14,260.509 1698.52,263.95C1689.99,271.87 1678.6,269.72 1677.36,269.47L1586.77,269.47C1585.2,269.59 1574.52,270.26 1566.54,262.11C1562.68,258.103 1560.26,252.929 1559.65,247.4L1559.65,78.63C1561.62,65.16 1573.16,54.991 1586.77,54.73L1678.28,54.73C1691.78,55.314 1703.13,65.317 1705.42,78.63L1705.42,251.08Z" style="fill:white;fill-rule:nonzero;"/>
                            <path d="M1814.86,60.24L1814.86,128.76C1818.69,143.186 1826.5,156.25 1837.39,166.46C1858.32,185.92 1883.12,187.46 1889.81,187.62L1969.81,187.62C1978.88,189.343 1986.02,196.478 1987.74,205.55L1987.74,253.37C1982.85,263.173 1972.95,269.536 1962,269.92L1901.3,269.92C1889.84,269.233 1879.54,262.599 1874.17,252.45L1874.17,205.55L1814.85,205.55L1814.85,264.87C1818.35,279.225 1825.85,292.3 1836.46,302.58C1857.05,322.35 1881.93,323.98 1888.46,324.21L1969.86,324.21C1976.65,324.03 2001.63,322.55 2023.2,303.04C2035.54,291.758 2044.18,277.007 2048,260.73L2048,196.81C2044.62,178.738 2035.41,162.26 2021.79,149.91C1998.43,128.98 1971.15,128.66 1964.79,128.76L1902.25,128.76C1895.67,129.739 1888.96,128.264 1883.4,124.62C1879.66,122.061 1876.65,118.573 1874.66,114.5L1874.66,78.17C1879.78,67.732 1890.18,60.858 1901.79,60.24L2020.89,60.24L2048,0.85L1889.81,0.85C1871.01,2.943 1853.33,10.845 1839.23,23.45C1828.18,33.498 1819.8,46.144 1814.86,60.24Z" style="fill:white;fill-rule:nonzero;"/>
                            <path d="M520,155.21C523.34,154.29 532.25,147.68 539.74,137.95C545.767,129.932 548.557,119.93 547.55,109.95L547.55,61.16C543.139,44.947 533.821,30.487 520.88,19.77C506.449,8.066 488.46,1.608 469.88,1.46L309.78,0L309.78,324.53L377.84,324.53L377.84,174.28L442.68,174.28C461.834,174.634 478.496,187.887 483.15,206.47L483.15,324.53L547.52,324.53L547.52,193.6C546.444,183.717 542.071,174.478 535.11,167.38C529.61,161.92 523.77,156.62 520,155.21ZM487.28,96.57C486.006,101.18 483.458,105.34 479.93,108.57C472.11,115.57 462.53,115.15 460.61,115.01L374.16,115.01C374.307,94.783 374.46,74.55 374.62,54.31L459.23,54.77C466.078,54.065 472.94,56.045 478.36,60.29C482.819,63.929 485.955,68.939 487.28,74.54L487.28,96.57Z" style="fill:white;fill-rule:nonzero;"/>
                            <path d="M593.05,64.38C593.05,54.26 590.77,29.38 607.61,14.76C629.42,-4.16 639,0.92 675.36,0.92L853.36,0.92L853.36,100.71L793.54,100.71L793.54,54.26L680.88,54.26C680.01,54.11 669.41,52.44 662.02,60.26C658.46,64.149 656.492,69.238 656.51,74.51L656.51,133.37L820.21,133.37L802.74,188.1L657.43,188.1L657.43,269.95L766.43,269.95C773.464,269.772 780.186,266.983 785.28,262.13C789.326,258.14 792.056,253.006 793.1,247.42L793.1,223.94L853.34,223.94L853.34,264.87C848.74,281.113 839.269,295.562 826.21,306.26C802,325.88 774.66,324.65 768.27,324.19L593.05,324.19L593.05,64.38Z" style="fill:white;fill-rule:nonzero;"/>
                        </g>
                    </g>
                </g>
            </g>
            <g transform="matrix(2.82054,0,0,2.82054,3084.43,1271.47)">
                <g>
                    <g id="Capa_1-21" serif:id="Capa_1-2" transform="matrix(0.746726,0,0,0.746717,-518.817,705.489)">
                        <g>
                            <g id="Capa_22" serif:id="Capa_2">
                                <g id="Capa_1-22" serif:id="Capa_1-2">
                                    <path d="M741.68,378.61L0,378.61L0,1442.39L1109,333.39L1109,0L741.68,378.61ZM219,892.84L219,590.52L515.64,590.52L219,892.84Z" style="fill:white;fill-rule:nonzero;"/>
                                </g>
                            </g>
                        </g>
                    </g>
                    <g id="Capa_1-23" serif:id="Capa_1-2" transform="matrix(0.741842,0,0,0.741842,-514.911,999.516)">
                        <g>
                            <g id="Capa_23" serif:id="Capa_2">
                                <g id="Capa_1-24" serif:id="Capa_1-2">
                                    <path d="M0,1113.23L0,1426.85L373,1053.85L1113.27,1053.85L1113.27,0L0,1113.23ZM892.84,836.33L599,836.33L892.84,550.48L892.84,836.33Z" style="fill:white;fill-rule:nonzero;"/>
                                </g>
                            </g>
                        </g>
                    </g>
                </g>
            </g>
        </g>
    </g>
</svg>
