<svg viewBox="0 0 32 33" fill="none" xmlns="http://www.w3.org/2000/svg">
<path d="M29.3337 17.8334V12.5001C29.3337 5.83341 26.667 3.16675 20.0003 3.16675H12.0003C5.33366 3.16675 2.66699 5.83341 2.66699 12.5001V20.5001C2.66699 27.1667 5.33366 29.8334 12.0003 29.8334H17.3337" stroke="currentColor" stroke-width="2" stroke-linecap="round" stroke-linejoin="round"/>
<path d="M29.3337 17.8334V12.5001C29.3337 5.83341 26.667 3.16675 20.0003 3.16675H12.0003C5.33366 3.16675 2.66699 5.83341 2.66699 12.5001V20.5001C2.66699 27.1667 5.33366 29.8334 12.0003 29.8334H17.3337" stroke="currentColor" stroke-width="2" stroke-linecap="round" stroke-linejoin="round"/>
<path d="M29.3337 17.8334V12.5001C29.3337 5.83341 26.667 3.16675 20.0003 3.16675H12.0003C5.33366 3.16675 2.66699 5.83341 2.66699 12.5001V20.5001C2.66699 27.1667 5.33366 29.8334 12.0003 29.8334H17.3337" stroke="currentColor" stroke-width="3" stroke-linecap="round" stroke-linejoin="round"/>
<path d="M21.333 26.4067L23.4397 28.5001L27.9997 23.1667" stroke="currentColor" stroke-width="3" stroke-linecap="round" stroke-linejoin="round"/>
<path d="M9.33301 14.5V18.5" stroke="currentColor" stroke-width="3" stroke-linecap="round" stroke-linejoin="round"/>
<path d="M16 14.5V18.5" stroke="currentColor" stroke-width="3" stroke-linecap="round" stroke-linejoin="round"/>
<path d="M22.667 14.5V18.5" stroke="currentColor" stroke-width="3" stroke-linecap="round" stroke-linejoin="round"/>
</svg>
