<svg viewBox="0 0 32 32" fill="none" xmlns="http://www.w3.org/2000/svg">
<path d="M15.6537 23.6666H23.547C23.427 23.7733 23.307 23.8667 23.187 23.9733L17.4937 28.24C15.6137 29.64 12.547 29.64 10.6537 28.24L4.947 23.9733C3.69367 23.04 2.66699 20.9733 2.66699 19.4133V9.53331C2.66699 7.90664 3.907 6.10664 5.427 5.53331L12.067 3.03998C13.1603 2.62665 14.9737 2.62665 16.067 3.03998L22.6937 5.53331C23.9603 6.01331 25.0403 7.34665 25.3737 8.70665H15.6403C15.347 8.70665 15.0803 8.71999 14.827 8.71999C12.3603 8.86666 11.7203 9.75997 11.7203 12.5733V19.8133C11.7337 22.88 12.5203 23.6666 15.6537 23.6666Z" stroke="currentColor" stroke-width="3" stroke-linecap="round" stroke-linejoin="round"/>
<path d="M11.7334 14.96H29.3334" stroke="currentColor" stroke-width="3" stroke-miterlimit="10" stroke-linecap="round" stroke-linejoin="round"/>
<path d="M29.3334 12.5599V19.9599C29.3067 22.9199 28.4934 23.6532 25.4134 23.6532H15.6534C12.5201 23.6532 11.7334 22.8666 11.7334 19.7866V12.5466C11.7334 9.74659 12.3734 8.85324 14.8401 8.69324C15.0934 8.69324 15.3601 8.67993 15.6534 8.67993H25.4134C28.5467 8.69326 29.3334 9.4666 29.3334 12.5599Z" stroke="currentColor" stroke-width="3" stroke-linecap="round" stroke-linejoin="round"/>
<path d="M15.0938 20.3467H16.8671" stroke="currentColor" stroke-width="3" stroke-miterlimit="10" stroke-linecap="round" stroke-linejoin="round"/>
<path d="M19.667 20.3467H24.027" stroke="currentColor" stroke-width="3" stroke-miterlimit="10" stroke-linecap="round" stroke-linejoin="round"/>
</svg>
