<svg viewBox="0 0 32 33" fill="none" xmlns="http://www.w3.org/2000/svg">
<path d="M13.3337 27.1667C13.3337 28.6394 14.5276 29.8333 16.0003 29.8333C17.4731 29.8333 18.667 28.6394 18.667 27.1667C18.667 25.6939 17.4731 24.5 16.0003 24.5C14.5276 24.5 13.3337 25.6939 13.3337 27.1667Z" stroke="currentColor" stroke-width="3" stroke-linecap="round" stroke-linejoin="round"/>
<path d="M23.9997 27.1667C23.9997 28.6394 25.1936 29.8333 26.6663 29.8333C28.1391 29.8333 29.333 28.6394 29.333 27.1667C29.333 25.6939 28.1391 24.5 26.6663 24.5C25.1936 24.5 23.9997 25.6939 23.9997 27.1667Z" stroke="currentColor" stroke-width="3" stroke-linecap="round" stroke-linejoin="round"/>
<path d="M2.66667 27.1667C2.66667 28.6394 3.86057 29.8333 5.33333 29.8333C6.80609 29.8333 8 28.6394 8 27.1667C8 25.6939 6.80609 24.5 5.33333 24.5C3.86057 24.5 2.66667 25.6939 2.66667 27.1667Z" stroke="currentColor" stroke-width="3" stroke-linecap="round" stroke-linejoin="round"/>
<path d="M13.3337 5.83341C13.3337 7.30617 14.5276 8.50008 16.0003 8.50008C17.4731 8.50008 18.667 7.30617 18.667 5.83341C18.667 4.36066 17.4731 3.16675 16.0003 3.16675C14.5276 3.16675 13.3337 4.36066 13.3337 5.83341Z" stroke="currentColor" stroke-width="3" stroke-linecap="round" stroke-linejoin="round"/>
<path d="M16 8.5L16 24.5" stroke="currentColor" stroke-width="3" stroke-linecap="round" stroke-linejoin="round"/>
<path d="M26.667 24.5001L26.667 19.1667C26.667 16.5001 25.3337 15.1667 22.667 15.1667L9.33366 15.1667C6.66699 15.1667 5.33366 16.5001 5.33366 19.1667L5.33366 24.5001" stroke="currentColor" stroke-width="3" stroke-linecap="round" stroke-linejoin="round"/>
</svg>
