<svg viewBox="0 0 32 32" fill="none" xmlns="http://www.w3.org/2000/svg">
<path d="M26.3865 19.9068C23.6399 22.6401 19.7065 23.4801 16.2532 22.4001L9.9732 28.6668C9.51987 29.1334 8.62654 29.4134 7.98654 29.3201L5.07987 28.9201C4.11987 28.7868 3.22654 27.8801 3.07987 26.9201L2.67987 24.0134C2.58654 23.3734 2.8932 22.4801 3.3332 22.0268L9.59987 15.7601C8.5332 12.2934 9.35987 8.36009 12.1065 5.62676C16.0399 1.69342 22.4265 1.69342 26.3732 5.62676C30.3199 9.56009 30.3199 15.9734 26.3865 19.9068Z" stroke="currentColor" stroke-width="3" stroke-miterlimit="10" stroke-linecap="round" stroke-linejoin="round"/>
<path d="M9.18652 23.3201L12.2532 26.3867" stroke="currentColor" stroke-width="3" stroke-miterlimit="10" stroke-linecap="round" stroke-linejoin="round"/>
<path d="M19.333 14.6667C20.4376 14.6667 21.333 13.7713 21.333 12.6667C21.333 11.5622 20.4376 10.6667 19.333 10.6667C18.2284 10.6667 17.333 11.5622 17.333 12.6667C17.333 13.7713 18.2284 14.6667 19.333 14.6667Z" stroke="currentColor" stroke-width="3" stroke-linecap="round" stroke-linejoin="round"/>
</svg>
