<svg viewBox="0 0 32 33" fill="none" xmlns="http://www.w3.org/2000/svg">
<path d="M25.5203 26.4999C27.8803 24.0999 29.3337 20.7933 29.3337 17.1666C29.3337 9.80658 23.3603 3.83325 16.0003 3.83325C8.64033 3.83325 2.66699 9.80658 2.66699 17.1666C2.66699 20.7933 4.10699 24.0733 6.45365 26.4866" stroke="currentColor" stroke-width="3" stroke-miterlimit="10" stroke-linecap="round" stroke-linejoin="round"/>
<path d="M15.9998 29.1667C18.4888 29.1667 20.5065 27.149 20.5065 24.66C20.5065 22.171 18.4888 20.1533 15.9998 20.1533C13.5109 20.1533 11.4932 22.171 11.4932 24.66C11.4932 27.149 13.5109 29.1667 15.9998 29.1667Z" stroke="currentColor" stroke-width="3" stroke-miterlimit="10" stroke-linecap="round" stroke-linejoin="round"/>
<path d="M20.333 16.5H21.333C22.4263 16.5 23.333 15.6067 23.333 14.5C23.333 13.4067 22.4263 12.5 21.333 12.5C20.2397 12.5 19.333 13.3933 19.333 14.5V15.5C19.333 16.0467 19.7863 16.5 20.333 16.5Z" stroke="currentColor" stroke-width="3" stroke-miterlimit="10" stroke-linecap="round" stroke-linejoin="round"/>
</svg>
