<svg width="21" height="19" viewBox="0 0 21 19" fill="none" xmlns="http://www.w3.org/2000/svg">
<path fill-rule="evenodd" clip-rule="evenodd" d="M16.357 17.9171C18.23 17.9171 19.749 16.3991 19.75 14.5261V14.5241V11.8241C18.513 11.8241 17.511 10.8221 17.51 9.58512C17.51 8.34912 18.512 7.34612 19.749 7.34612H19.75V4.64612C19.752 2.77212 18.235 1.25212 16.362 1.25012H16.356H4.644C2.77 1.25012 1.251 2.76812 1.25 4.64212V4.64312V7.43312C2.444 7.39112 3.445 8.32512 3.487 9.51912C3.488 9.54112 3.489 9.56312 3.489 9.58512C3.49 10.8201 2.491 11.8221 1.256 11.8241H1.25V14.5241C1.249 16.3971 2.768 17.9171 4.641 17.9171H4.642H16.357Z" stroke="#101828" stroke-width="1.5" stroke-linecap="round" stroke-linejoin="round"/>
<path fill-rule="evenodd" clip-rule="evenodd" d="M10.8716 6.56315L11.4876 7.81015C11.5476 7.93215 11.6636 8.01715 11.7986 8.03715L13.1756 8.23815C13.5166 8.28815 13.6516 8.70615 13.4056 8.94515L12.4096 9.91515C12.3116 10.0102 12.2676 10.1472 12.2896 10.2822L12.5246 11.6522C12.5826 11.9912 12.2276 12.2492 11.9236 12.0892L10.6926 11.4422C10.5716 11.3782 10.4276 11.3782 10.3066 11.4422L9.07658 12.0892C8.77158 12.2492 8.41658 11.9912 8.47458 11.6522L8.70958 10.2822C8.73258 10.1472 8.68758 10.0102 8.58958 9.91515L7.59458 8.94515C7.34858 8.70615 7.48358 8.28815 7.82358 8.23815L9.20058 8.03715C9.33558 8.01715 9.45258 7.93215 9.51258 7.81015L10.1276 6.56315C10.2796 6.25515 10.7196 6.25515 10.8716 6.56315Z" stroke="#101828" stroke-width="1.5" stroke-linecap="round" stroke-linejoin="round"/>
</svg>
