<svg width="25" height="25" viewBox="0 0 25 25" fill="none" xmlns="http://www.w3.org/2000/svg">
<path d="M12.168 15C13.5487 15 14.668 13.8807 14.668 12.5C14.668 11.1193 13.5487 10 12.168 10C10.7873 10 9.66797 11.1193 9.66797 12.5C9.66797 13.8807 10.7873 15 12.168 15Z" stroke="#101828" stroke-width="1.5" stroke-miterlimit="10" stroke-linecap="round" stroke-linejoin="round"/>
<path d="M18.668 10V15" stroke="#101828" stroke-width="1.5" stroke-miterlimit="10" stroke-linecap="round" stroke-linejoin="round"/>
<path d="M9.16797 18.5C9.16797 19.25 8.95798 19.96 8.58798 20.56C7.89798 21.72 6.62797 22.5 5.16797 22.5C3.70797 22.5 2.43796 21.72 1.74796 20.56C1.37796 19.96 1.16797 19.25 1.16797 18.5C1.16797 16.29 2.95797 14.5 5.16797 14.5C7.37797 14.5 9.16797 16.29 9.16797 18.5Z" stroke="#101828" stroke-width="1.5" stroke-miterlimit="10" stroke-linecap="round" stroke-linejoin="round"/>
<path d="M3.60938 18.4995L4.59937 19.4895L6.72937 17.5195" stroke="#101828" stroke-width="1.5" stroke-linecap="round" stroke-linejoin="round"/>
<path d="M2.16797 15.8V9.5C2.16797 6 4.16797 4.5 7.16797 4.5H17.168C20.168 4.5 22.168 6 22.168 9.5V15.5C22.168 19 20.168 20.5 17.168 20.5H8.66797" stroke="#101828" stroke-width="1.5" stroke-miterlimit="10" stroke-linecap="round" stroke-linejoin="round"/>
</svg>
