<svg width="28" height="28" viewBox="0 0 28 28" fill="none" xmlns="http://www.w3.org/2000/svg">
<path d="M10.5004 15.1665C9.73043 15.5515 9.08876 16.1232 8.61043 16.8348C8.3421 17.2432 8.3421 17.7565 8.61043 18.1648C9.08876 18.8765 9.73043 19.4482 10.5004 19.8332" stroke="currentColor" stroke-width="1.5" stroke-linecap="round" stroke-linejoin="round"/>
<path d="M17.7451 15.1665C18.5151 15.5515 19.1568 16.1232 19.6351 16.8348C19.9035 17.2432 19.9035 17.7565 19.6351 18.1648C19.1568 18.8765 18.5151 19.4482 17.7451 19.8332" stroke="currentColor" stroke-width="1.5" stroke-linecap="round" stroke-linejoin="round"/>
<path d="M10.4997 25.6668H17.4997C23.333 25.6668 25.6663 23.3335 25.6663 17.5002V10.5002C25.6663 4.66683 23.333 2.3335 17.4997 2.3335H10.4997C4.66634 2.3335 2.33301 4.66683 2.33301 10.5002V17.5002C2.33301 23.3335 4.66634 25.6668 10.4997 25.6668Z" stroke="currentColor" stroke-width="1.5" stroke-linecap="round" stroke-linejoin="round"/>
<path d="M2.60156 9.34516L25.0249 9.3335" stroke="currentColor" stroke-width="1.5" stroke-linecap="round" stroke-linejoin="round"/>
</svg>
