<svg width="60" height="60" viewBox="0 0 60 60" fill="none" xmlns="http://www.w3.org/2000/svg">
<rect width="60" height="60" rx="30" fill="#F1EAFF"/>
<path fill-rule="evenodd" clip-rule="evenodd" d="M36.5866 18C38.3746 18 40.0946 18.7067 41.36 19.9747C42.6266 21.24 43.3346 22.9467 43.3346 24.7333V35.2667C43.3346 38.9867 40.308 42 36.5866 42H23.4146C19.6933 42 16.668 38.9867 16.668 35.2667V24.7333C16.668 21.0133 19.68 18 23.4146 18H36.5866ZM38.708 26.72L38.8146 26.6133C39.1333 26.2267 39.1333 25.6667 38.8 25.28C38.6146 25.0813 38.36 24.96 38.0946 24.9333C37.8146 24.9187 37.548 25.0133 37.3466 25.2L31.3346 30C30.5613 30.6413 29.4533 30.6413 28.668 30L22.668 25.2C22.2533 24.8933 21.68 24.9333 21.3346 25.2933C20.9746 25.6533 20.9346 26.2267 21.24 26.6267L21.4146 26.8L27.4813 31.5333C28.228 32.12 29.1333 32.44 30.0813 32.44C31.0266 32.44 31.948 32.12 32.6933 31.5333L38.708 26.72Z" fill="#925FFF"/>
</svg>
