<svg width="60" height="60" viewBox="0 0 60 60" fill="none" xmlns="http://www.w3.org/2000/svg">
<rect width="60" height="60" rx="30" fill="#FFF2EA"/>
<path opacity="0.4" d="M26.1109 27.5253L32.4748 33.8892C32.8637 34.2781 32.8637 34.9145 32.4748 35.3034L30.7071 37.0712C29.6323 38.146 28.2251 38.6763 26.818 38.6834C25.4815 38.6763 24.138 38.1955 23.0844 37.2268C20.7793 35.0913 20.8924 31.3295 23.1198 29.1021L24.6967 27.5253C25.0856 27.1364 25.722 27.1364 26.1109 27.5253Z" fill="#FF7A28"/>
<path opacity="0.4" d="M36.9146 22.7736C39.2339 24.9091 39.1137 28.6638 36.8863 30.8912L35.3095 32.468C34.9206 32.8569 34.2842 32.8569 33.8953 32.468L27.5313 26.1041C27.1424 25.7152 27.1424 25.0788 27.5313 24.6899L29.2991 22.9221C30.3739 21.8473 31.781 21.317 33.1882 21.3099C34.5175 21.324 35.861 21.8049 36.9146 22.7736Z" fill="#FF7A28"/>
<path d="M33.3592 27.702L27.7023 33.3588C27.4124 33.6487 26.9316 33.6487 26.6417 33.3588C26.3517 33.0689 26.3517 32.5881 26.6417 32.2982L32.2985 26.6413C32.5884 26.3514 33.0693 26.3514 33.3592 26.6413C33.6491 26.9312 33.6491 27.4121 33.3592 27.702Z" fill="#FF7A28"/>
</svg>
