<svg width="60" height="60" viewBox="0 0 60 60" fill="none" xmlns="http://www.w3.org/2000/svg">
<rect width="60" height="60" rx="30" fill="#EEF4FF"/>
<path d="M32.4183 23.4899C31.9422 23.4019 31.505 23.7057 31.4144 24.1704C31.3238 24.6351 31.6285 25.0888 32.0916 25.1797C33.4859 25.4515 34.5624 26.5308 34.8353 27.9298V27.9308C34.913 28.3336 35.2675 28.6264 35.6759 28.6264C35.7306 28.6264 35.7854 28.6214 35.8412 28.6114C36.3043 28.5184 36.609 28.0657 36.5184 27.6001C36.1111 25.5105 34.5027 23.8966 32.4183 23.4899Z" fill="#467CE9"/>
<path d="M32.3558 20.0079C32.1328 19.976 31.9087 20.0419 31.7304 20.1838C31.5472 20.3277 31.4326 20.5356 31.4078 20.7684C31.355 21.2391 31.6946 21.6648 32.1646 21.7178C35.4063 22.0795 37.9259 24.6048 38.2904 27.8565C38.3392 28.2922 38.7047 28.621 39.1409 28.621C39.1738 28.621 39.2057 28.619 39.2385 28.615C39.4666 28.59 39.6698 28.4771 39.8132 28.2972C39.9556 28.1174 40.0203 27.8935 39.9944 27.6647C39.5403 23.6075 36.4002 20.4586 32.3558 20.0079Z" fill="#467CE9"/>
<path fill-rule="evenodd" clip-rule="evenodd" d="M29.0317 30.9724C33.0208 34.9604 33.9258 30.3467 36.4656 32.8848C38.9143 35.3328 40.3216 35.8232 37.2192 38.9247C36.8306 39.237 34.3616 42.9943 25.6846 34.3197C17.0065 25.644 20.7616 23.1724 21.074 22.7839C24.1839 19.6738 24.6659 21.0894 27.1145 23.5373C29.6544 26.0765 25.0427 26.9844 29.0317 30.9724Z" fill="#467CE9"/>
</svg>
